M48
; DRILL file {KiCad (5.1.10)-1} date 12/21/21 11:35:26
; FORMAT={-:-/ absolute / inch / decimal}
; #@! TF.CreationDate,2021-12-21T11:35:26+02:00
; #@! TF.GenerationSoftware,Kicad,Pcbnew,(5.1.10)-1
; #@! TF.FileFunction,Plated,1,2,PTH
FMAT,2
INCH
T1C0.0157
T2C0.0197
T3C0.0394
T4C0.0409
T5C0.0591
T6C0.0669
%
G90
G05
T1
X4.0547Y-6.1024
X4.0854Y-6.0236
X4.115Y-5.9449
X4.2429Y-5.8665
X4.3Y-5.65
X4.3Y-5.75
X4.3Y-5.85
X4.3Y-5.95
X4.3Y-6.05
X4.3Y-6.15
X4.4Y-5.65
X4.4Y-5.75
X4.4Y-5.85
X4.4Y-5.95
X4.4Y-6.05
X4.4Y-6.15
X4.5Y-5.65
X4.5Y-5.75
X4.5Y-5.85
X4.5Y-5.95
X4.5Y-6.05
X4.5Y-6.15
X4.6Y-5.65
X4.6Y-5.75
X4.6Y-5.85
X4.6Y-5.95
X4.6Y-6.05
X4.6Y-6.15
X4.6944Y-4.3535
X4.6944Y-4.4535
X4.6944Y-4.5535
X4.6944Y-4.6535
X4.6944Y-4.7535
X4.6944Y-4.8535
X4.7Y-5.65
X4.7Y-5.75
X4.7Y-5.85
X4.7Y-5.95
X4.7Y-6.05
X4.7Y-6.15
X4.7944Y-4.3535
X4.7944Y-4.4535
X4.7944Y-4.5535
X4.7944Y-4.6535
X4.7944Y-4.7535
X4.7944Y-4.8535
X4.82Y-5.47
X4.8244Y-5.5723
X4.8389Y-5.5311
X4.84Y-5.2114
X4.86Y-5.45
X4.8656Y-5.79
X4.8656Y-5.8708
X4.8656Y-5.95
X4.8944Y-4.3535
X4.8944Y-4.4535
X4.8944Y-4.5535
X4.8944Y-4.6535
X4.8944Y-4.7535
X4.8944Y-4.8535
X4.9Y-5.2114
X4.9366Y-4.4917
X4.9394Y-5.178
X4.9539Y-4.5303
X4.9591Y-5.7547
X4.961Y-5.8059
X4.9827Y-5.8488
X5.0001Y-5.491
X5.036Y-5.3679
X5.04Y-5.6837
X5.0515Y-5.7213
X5.0524Y-5.8224
X5.0559Y-5.2241
X5.0657Y-5.2622
X5.0659Y-5.3398
X5.0731Y-5.3836
X5.076Y-5.5815
X5.0949Y-5.1851
X5.1038Y-5.272
X5.1124Y-5.391
X5.1165Y-5.7622
X5.1205Y-5.8311
X5.1252Y-5.6386
X5.1256Y-5.5232
X5.1307Y-5.3008
X5.1335Y-5.5835
X5.1572Y-5.3382
X5.1843Y-5.7843
X5.1878Y-5.5831
X5.1878Y-5.635
X5.1882Y-5.4724
X5.1882Y-5.5343
X5.1894Y-5.6957
X5.19Y-5.36
X5.2Y-5.97
X5.2421Y-5.5839
X5.25Y-5.34
X5.25Y-5.8
X5.2528Y-5.6429
X5.2543Y-5.5264
X5.2561Y-5.9663
X5.28Y-5.77
X5.2969Y-5.4264
X5.3106Y-5.5819
X5.32Y-5.78
X5.3618Y-5.4918
X5.37Y-4.57
X5.3734Y-5.6566
X5.3781Y-5.7237
X5.3949Y-5.5131
X5.3962Y-5.6887
X5.4484Y-5.7945
X5.45Y-4.6
X5.5Y-5.87
X5.502Y-5.5047
X5.54Y-5.83
X5.5539Y-4.6142
X5.57Y-5.79
X5.6Y-5.75
X5.6398Y-4.639
X5.66Y-5.75
X5.73Y-5.75
X5.85Y-5.56
X5.85Y-5.6141
X5.8563Y-5.5039
X5.86Y-5.39
X5.86Y-5.45
X6.0767Y-4.9928
X6.0767Y-5.0928
X6.0767Y-5.1928
X6.0767Y-5.2928
X6.0767Y-5.3928
X6.0767Y-5.4928
X6.0767Y-5.5928
X6.1149Y-5.8713
X6.1767Y-5.2928
X6.1767Y-5.3928
X6.1767Y-5.4928
X6.1767Y-5.5928
X6.2767Y-5.2928
X6.2767Y-5.3928
X6.2767Y-5.4928
X6.2767Y-5.5928
X6.3767Y-5.2928
X6.3767Y-5.3928
X6.3767Y-5.4928
X6.3767Y-5.5928
X6.4264Y-6.487
X6.44Y-5.26
X6.4767Y-5.2928
X6.4767Y-5.3928
X6.4767Y-5.4928
X6.4767Y-5.5928
X6.49Y-5.22
T2
X4.19Y-6.48
X4.3Y-6.48
X4.41Y-6.48
X4.52Y-6.48
X4.63Y-6.48
X5.19Y-4.24
X5.22Y-6.18
X5.3Y-4.24
X5.36Y-4.39
X5.5Y-6.18
X5.88Y-4.24
X5.99Y-4.24
T3
X4.0882Y-5.178
X4.0882Y-5.278
X4.0882Y-5.378
X4.0882Y-5.478
T4
X4.8067Y-6.3371
X4.8067Y-6.4371
X4.9067Y-6.3371
X4.9067Y-6.4371
X5.0067Y-6.3371
X5.0067Y-6.4371
X5.1067Y-6.3371
X5.1067Y-6.4371
X5.2067Y-6.3371
X5.2067Y-6.4371
X5.3067Y-6.3371
X5.3067Y-6.4371
X5.4067Y-6.3371
X5.4067Y-6.4371
X5.5067Y-6.3371
X5.5067Y-6.4371
X5.6067Y-6.3371
X5.6067Y-6.4371
X5.7067Y-6.3371
X5.7067Y-6.4371
X5.8067Y-6.3371
X5.8067Y-6.4371
X5.9067Y-6.3371
X5.9067Y-6.4371
T5
X4.1862Y-4.8445
X6.4456Y-4.6023
T6
X4.0862Y-4.7445
X4.0862Y-4.9445
X4.2862Y-4.7445
X4.2862Y-4.9445
X6.3456Y-4.5023
X6.3456Y-4.7023
X6.5456Y-4.5023
X6.5456Y-4.7023
T0
M30
