G04 #@! TF.GenerationSoftware,KiCad,Pcbnew,(5.1.10)-1*
G04 #@! TF.CreationDate,2021-12-21T11:35:25+02:00*
G04 #@! TF.ProjectId,COM,434f4d2e-6b69-4636-9164-5f7063625858,rev?*
G04 #@! TF.SameCoordinates,Original*
G04 #@! TF.FileFunction,Soldermask,Bot*
G04 #@! TF.FilePolarity,Negative*
%FSLAX46Y46*%
G04 Gerber Fmt 4.6, Leading zero omitted, Abs format (unit mm)*
G04 Created by KiCad (PCBNEW (5.1.10)-1) date 2021-12-21 11:35:25*
%MOMM*%
%LPD*%
G01*
G04 APERTURE LIST*
%ADD10C,2.352000*%
%ADD11C,2.152000*%
%ADD12O,1.802000X1.802000*%
%ADD13C,1.742000*%
G04 APERTURE END LIST*
G36*
G01*
X151670000Y-108121000D02*
X151670000Y-107271000D01*
G75*
G02*
X151721000Y-107220000I51000J0D01*
G01*
X152571000Y-107220000D01*
G75*
G02*
X152622000Y-107271000I0J-51000D01*
G01*
X152622000Y-108121000D01*
G75*
G02*
X152571000Y-108172000I-51000J0D01*
G01*
X151721000Y-108172000D01*
G75*
G02*
X151670000Y-108121000I0J51000D01*
G01*
G37*
D10*
X108870480Y-125590300D03*
X103790480Y-125590300D03*
X103790480Y-120510300D03*
X108870480Y-120510300D03*
D11*
X106330480Y-123050300D03*
X163717840Y-116898240D03*
D10*
X161177840Y-119438240D03*
X166257840Y-119438240D03*
X166257840Y-114358240D03*
X161177840Y-114358240D03*
G36*
G01*
X104741000Y-138290000D02*
X104741000Y-139990000D01*
G75*
G02*
X104690000Y-140041000I-51000J0D01*
G01*
X102990000Y-140041000D01*
G75*
G02*
X102939000Y-139990000I0J51000D01*
G01*
X102939000Y-138290000D01*
G75*
G02*
X102990000Y-138239000I51000J0D01*
G01*
X104690000Y-138239000D01*
G75*
G02*
X104741000Y-138290000I0J-51000D01*
G01*
G37*
D12*
X103840000Y-136600000D03*
X103840000Y-134060000D03*
X103840000Y-131520000D03*
D13*
X150030000Y-163502000D03*
X150030000Y-160962000D03*
X147490000Y-163502000D03*
X147490000Y-160962000D03*
X144950000Y-163502000D03*
X144950000Y-160962000D03*
X142410000Y-163502000D03*
X142410000Y-160962000D03*
X139870000Y-163502000D03*
X139870000Y-160962000D03*
X137330000Y-163502000D03*
X137330000Y-160962000D03*
X134790000Y-163502000D03*
X134790000Y-160962000D03*
X132250000Y-163502000D03*
X132250000Y-160962000D03*
X129710000Y-163502000D03*
X129710000Y-160962000D03*
X127170000Y-163502000D03*
X127170000Y-160962000D03*
X124630000Y-163502000D03*
X124630000Y-160962000D03*
X122090000Y-163502000D03*
X122090000Y-160962000D03*
G36*
G01*
X139224000Y-157397000D02*
X139224000Y-156547000D01*
G75*
G02*
X139275000Y-156496000I51000J0D01*
G01*
X140125000Y-156496000D01*
G75*
G02*
X140176000Y-156547000I0J-51000D01*
G01*
X140176000Y-157397000D01*
G75*
G02*
X140125000Y-157448000I-51000J0D01*
G01*
X139275000Y-157448000D01*
G75*
G02*
X139224000Y-157397000I0J51000D01*
G01*
G37*
G36*
G01*
X132112000Y-157397000D02*
X132112000Y-156547000D01*
G75*
G02*
X132163000Y-156496000I51000J0D01*
G01*
X133013000Y-156496000D01*
G75*
G02*
X133064000Y-156547000I0J-51000D01*
G01*
X133064000Y-157397000D01*
G75*
G02*
X133013000Y-157448000I-51000J0D01*
G01*
X132163000Y-157448000D01*
G75*
G02*
X132112000Y-157397000I0J51000D01*
G01*
G37*
G36*
G01*
X108744000Y-165017000D02*
X108744000Y-164167000D01*
G75*
G02*
X108795000Y-164116000I51000J0D01*
G01*
X109645000Y-164116000D01*
G75*
G02*
X109696000Y-164167000I0J-51000D01*
G01*
X109696000Y-165017000D01*
G75*
G02*
X109645000Y-165068000I-51000J0D01*
G01*
X108795000Y-165068000D01*
G75*
G02*
X108744000Y-165017000I0J51000D01*
G01*
G37*
G36*
G01*
X111538000Y-165017000D02*
X111538000Y-164167000D01*
G75*
G02*
X111589000Y-164116000I51000J0D01*
G01*
X112439000Y-164116000D01*
G75*
G02*
X112490000Y-164167000I0J-51000D01*
G01*
X112490000Y-165017000D01*
G75*
G02*
X112439000Y-165068000I-51000J0D01*
G01*
X111589000Y-165068000D01*
G75*
G02*
X111538000Y-165017000I0J51000D01*
G01*
G37*
G36*
G01*
X114332000Y-165017000D02*
X114332000Y-164167000D01*
G75*
G02*
X114383000Y-164116000I51000J0D01*
G01*
X115233000Y-164116000D01*
G75*
G02*
X115284000Y-164167000I0J-51000D01*
G01*
X115284000Y-165017000D01*
G75*
G02*
X115233000Y-165068000I-51000J0D01*
G01*
X114383000Y-165068000D01*
G75*
G02*
X114332000Y-165017000I0J51000D01*
G01*
G37*
G36*
G01*
X134144000Y-108121000D02*
X134144000Y-107271000D01*
G75*
G02*
X134195000Y-107220000I51000J0D01*
G01*
X135045000Y-107220000D01*
G75*
G02*
X135096000Y-107271000I0J-51000D01*
G01*
X135096000Y-108121000D01*
G75*
G02*
X135045000Y-108172000I-51000J0D01*
G01*
X134195000Y-108172000D01*
G75*
G02*
X134144000Y-108121000I0J51000D01*
G01*
G37*
G36*
G01*
X148876000Y-108121000D02*
X148876000Y-107271000D01*
G75*
G02*
X148927000Y-107220000I51000J0D01*
G01*
X149777000Y-107220000D01*
G75*
G02*
X149828000Y-107271000I0J-51000D01*
G01*
X149828000Y-108121000D01*
G75*
G02*
X149777000Y-108172000I-51000J0D01*
G01*
X148927000Y-108172000D01*
G75*
G02*
X148876000Y-108121000I0J51000D01*
G01*
G37*
G36*
G01*
X131350000Y-108121000D02*
X131350000Y-107271000D01*
G75*
G02*
X131401000Y-107220000I51000J0D01*
G01*
X132251000Y-107220000D01*
G75*
G02*
X132302000Y-107271000I0J-51000D01*
G01*
X132302000Y-108121000D01*
G75*
G02*
X132251000Y-108172000I-51000J0D01*
G01*
X131401000Y-108172000D01*
G75*
G02*
X131350000Y-108121000I0J51000D01*
G01*
G37*
G36*
G01*
X105950000Y-165017000D02*
X105950000Y-164167000D01*
G75*
G02*
X106001000Y-164116000I51000J0D01*
G01*
X106851000Y-164116000D01*
G75*
G02*
X106902000Y-164167000I0J-51000D01*
G01*
X106902000Y-165017000D01*
G75*
G02*
X106851000Y-165068000I-51000J0D01*
G01*
X106001000Y-165068000D01*
G75*
G02*
X105950000Y-165017000I0J51000D01*
G01*
G37*
G36*
G01*
X135668000Y-111931000D02*
X135668000Y-111081000D01*
G75*
G02*
X135719000Y-111030000I51000J0D01*
G01*
X136569000Y-111030000D01*
G75*
G02*
X136620000Y-111081000I0J-51000D01*
G01*
X136620000Y-111931000D01*
G75*
G02*
X136569000Y-111982000I-51000J0D01*
G01*
X135719000Y-111982000D01*
G75*
G02*
X135668000Y-111931000I0J51000D01*
G01*
G37*
G36*
G01*
X117126000Y-165017000D02*
X117126000Y-164167000D01*
G75*
G02*
X117177000Y-164116000I51000J0D01*
G01*
X118027000Y-164116000D01*
G75*
G02*
X118078000Y-164167000I0J-51000D01*
G01*
X118078000Y-165017000D01*
G75*
G02*
X118027000Y-165068000I-51000J0D01*
G01*
X117177000Y-165068000D01*
G75*
G02*
X117126000Y-165017000I0J51000D01*
G01*
G37*
M02*
